<svg xmlns="http://www.w3.org/2000/svg" viewBox="0 0 24 24" role="img" aria-label="AWS"><path fill="#FF9900" d="M6.763 10.036c0 .296.032.535.088.714.064.176.144.368.256.576.04.063.056.112.056.16 0 .072-.048.144-.152.216l-.504.336a.383.383 0 01-.208.072c-.08 0-.16-.04-.24-.12a2.49 2.49 0 01-.288-.384 1.69 1.69 0 01-.224-.512c-.56.664-1.264.996-2.112.996-.604 0-1.084-.172-1.436-.516-.352-.344-.528-.8-.528-1.368 0-.608.216-1.096.652-1.464.44-.368 1.024-.552 1.76-.552.248 0 .504.016.772.048.272.032.552.088.848.168v-.56c0-.584-.128-1.008-.384-1.272-.256-.264-.688-.396-1.296-.396-.28 0-.568.032-.864.096-.296.064-.584.14-.864.232-.128.04-.224.064-.28.08-.048.016-.084.024-.112.024-.096 0-.144-.072-.144-.224v-.352c0-.112.016-.196.056-.244.04-.064.112-.12.216-.176.28-.144.616-.264 1.008-.36.392-.096.8-.144 1.224-.144.936 0 1.624.212 2.064.636.44.424.66 1.064.66 1.92v2.52zm-2.8 1.184c.264 0 .536-.048.816-.144.28-.096.532-.24.756-.432.128-.112.224-.232.288-.376.064-.144.096-.344.096-.6v-.288a6.65 6.65 0 00-.732-.136c-.24-.032-.472-.048-.696-.048-.504 0-.872.1-1.104.3-.232.2-.348.48-.348.84 0 .344.088.6.264.768.176.168.424.252.744.252zm5.6-.128c.128 0 .224.024.28.08.064.048.104.16.104.336v.56c0 .176-.016.304-.056.384-.04.08-.12.16-.24.24-.4.2-.84.36-1.32.48-.48.12-1 .18-1.56.18-.672 0-1.28-.128-1.824-.384a3.2 3.2 0 01-1.236-1.104c-.304-.48-.456-1.048-.456-1.704 0-.648.168-1.228.504-1.74.336-.512.816-.912 1.44-1.2.624-.288 1.352-.432 2.184-.432.4 0 .792.04 1.176.12.384.08.744.16 1.08.24v.96c0 .192-.064.288-.192.288-.064 0-.208-.032-.432-.096-.4-.112-.832-.168-1.296-.168-.576 0-1.04.124-1.392.372-.352.248-.528.664-.528 1.248 0 .512.136.9.408 1.164.272.264.648.396 1.128.396.264 0 .512-.032.744-.096.232-.064.456-.16.672-.288.064-.04.112-.064.144-.064.064 0 .104.024.128.064.064.04.096.16.096.336v.576z"/></svg>
